# xmcd
#
# Track frame offsets: 
#        150
#        16483
#        33124
#        46057
#        60994
#        79149
#        92189
#        107920
#
# Disc length: 1605 seconds
#
# Revision: 0
# Processed by: cddbd v1.5.2PL0 Copyright (c) Steve Scherf et al.
# Submitted via: ExactAudioCopy v1.0b3
#
DISCID=57064308
DTITLE=Paulo_Pavle_Dorcic - 8
DYEAR=2014
DGENRE=Blues
TTITLE0=Samo_si_prah
TTITLE1=Crna_djevojka
TTITLE2=Croatian_blues
TTITLE3=Depresija
TTITLE4=Jos_vjerujem_u_ljubav
TTITLE5=Ostaje_mi_blues
TTITLE6=Svakodnevica
TTITLE7=Vozovi_odlaze_u_mrak
EXTD=
EXTT0=
EXTT1=
EXTT2=
EXTT3=
EXTT4=
EXTT5=
EXTT6=
EXTT7=
PLAYORDER=
